<?xml version="1.0" encoding="UTF-8" standalone="no"?>
<!-- Created with Inkscape (http://www.inkscape.org/) -->

<svg
   xmlns:dc="http://purl.org/dc/elements/1.1/"
   xmlns:cc="http://creativecommons.org/ns#"
   xmlns:rdf="http://www.w3.org/1999/02/22-rdf-syntax-ns#"
   xmlns:svg="http://www.w3.org/2000/svg"
   xmlns="http://www.w3.org/2000/svg"
   xmlns:sodipodi="http://sodipodi.sourceforge.net/DTD/sodipodi-0.dtd"
   xmlns:inkscape="http://www.inkscape.org/namespaces/inkscape"
   version="1.1"
   id="svg2"
   width="1196.1101"
   height="663.40076"
   viewBox="0 0 1196.1101 663.40076"
   sodipodi:docname="Dahyun signature.svg"
   inkscape:version="0.92.5 (2060ec1f9f, 2020-04-08)">
  <metadata
     id="metadata8">
    <rdf:RDF>
      <cc:Work
         rdf:about="">
        <dc:format>image/svg+xml</dc:format>
        <dc:type
           rdf:resource="http://purl.org/dc/dcmitype/StillImage" />
      </cc:Work>
    </rdf:RDF>
  </metadata>
  <defs
     id="defs6" />
  <sodipodi:namedview
     pagecolor="#ffffff"
     bordercolor="#666666"
     borderopacity="1"
     objecttolerance="10"
     gridtolerance="10"
     guidetolerance="10"
     inkscape:pageopacity="0"
     inkscape:pageshadow="2"
     inkscape:window-width="1366"
     inkscape:window-height="705"
     id="namedview4"
     showgrid="false"
     inkscape:zoom="0.80795808"
     inkscape:cx="598.05505"
     inkscape:cy="331.70038"
     inkscape:window-x="-8"
     inkscape:window-y="-8"
     inkscape:window-maximized="1"
     inkscape:current-layer="svg2" />
  <path
     style="fill:#000000"
     d="m 600.11401,660.30292 c -1.36135,-1.81661 -2.76825,-4.26975 -3.12643,-5.45143 -1.14428,-3.77508 -0.83979,-45.3113 0.44678,-60.94681 0.75367,-9.15927 0.89415,-16.08971 0.35722,-17.62406 -0.88029,-2.51561 -0.91089,-2.5216 -5.88489,-1.15354 -2.75,0.75637 -8.825,2.23762 -13.5,3.29168 -4.675,1.05405 -13.9,3.69149 -20.5,5.86097 -6.6,2.16949 -14.66182,4.71574 -17.91515,5.65834 -3.25333,0.9426 -9.22755,3.02965 -13.27603,4.63788 -8.17532,3.24758 -12.44169,3.6738 -14.30467,1.42906 -1.72596,-2.07966 1.1049,-6.27788 4.7585,-7.05696 2.56023,-0.54593 17.69334,-5.17146 42.23735,-12.91009 16.64256,-5.24733 53.65932,-14.39032 81.5,-20.13016 7.15,-1.47409 17.05,-3.53451 22,-4.57871 11.94789,-2.52039 14.89779,-2.22349 15.32818,1.54273 0.54984,4.81155 4.30914,3.68687 -43.67148,13.06539 -12.83882,2.50953 -24.21246,4.56279 -25.27475,4.56279 -1.12217,0 -2.31633,1.0123 -2.85,2.41598 -1.50686,3.96332 -3.36198,51.89241 -2.53848,65.58402 1.56143,25.96027 1.1415,28.37843 -3.78615,21.80292 z M 642.36866,643.25 c -5.3441,-5.31494 -8.82087,-12.74762 -10.0529,-21.49122 -0.5238,-3.71733 -1.39262,-9.26087 -1.93072,-12.31898 -2.07056,-11.76748 -0.65438,-15.9273 4.10917,-12.07002 1.83427,1.48531 2.48826,3.92662 4.07182,15.19987 1.76513,12.56589 4.98922,22.93035 7.13297,22.93035 1.64108,0 4.93846,-9.41749 4.93846,-14.10449 0,-3.40381 0.53939,-5.28252 1.85969,-6.47738 1.76115,-1.59382 2.01999,-1.51141 4.88462,1.55519 1.66371,1.78101 3.02492,3.75454 3.02492,4.38563 0,1.59158 6.52541,10.62033 8.85499,12.25204 1.72314,1.20693 2.15177,0.97112 4.33675,-2.38584 2.02715,-3.11449 5.01462,-9.34419 5.38306,-11.22515 0.0539,-0.275 0.36239,-1.175 0.68561,-2 2.60177,-6.64082 2.79379,-8.82408 1.13964,-12.95819 -1.43494,-3.58626 -1.47586,-4.39457 -0.28292,-5.58752 2.10813,-2.10812 5.55025,-0.675 7.31597,3.04598 1.95949,4.12931 2.00732,10.31337 0.1178,15.22949 -0.797,2.07363 -1.96533,5.77922 -2.59628,8.23464 -1.01469,3.94884 -7.1018,15.44338 -9.93005,18.75136 -0.5717,0.66867 -1.8236,0.93656 -2.78201,0.59532 -2.99132,-1.06506 -10.2922,-7.41296 -12.56752,-10.92707 -1.19627,-1.84759 -2.40004,-3.36314 -2.67504,-3.36788 -0.62253,-0.0108 -3.6106,7.55405 -4.40972,11.16394 -0.67112,3.03169 -3.08766,5.81993 -5.04406,5.81993 -0.72101,0 -3.23392,-1.9125 -5.58425,-4.25 z m 64.94575,2.909 c -2.71383,-2.01127 -10.33572,-39.7429 -10.83926,-53.659 -0.0896,-2.475 -0.79702,-7.5597 -1.57213,-11.29934 -2.27515,-10.97667 1.08095,-15.41946 6.06315,-8.02638 1.69116,2.50951 2.25602,5.28857 2.74255,13.49308 0.55907,9.42781 1.72634,17.73108 4.82645,34.33264 2.74337,14.69115 3.83355,21.12006 3.85185,22.71482 0.0276,2.40234 -3.09737,3.90805 -5.07261,2.44418 z m 29.11284,-10.77504 c -3.84624,-1.5346 -6.00767,-3.91704 -8.96705,-9.88396 -7.38093,-14.88197 -5.60568,-37.58522 3.993,-51.06532 2.67393,-3.75518 6.18427,-5.53014 12.22212,-6.17998 3.72368,-0.40076 5.30236,-0.0934 7.20425,1.40262 3.60002,2.83179 2.0973,6.26869 -2.86472,6.55195 -8.13966,0.46467 -12.93881,5.72844 -16.07673,17.63316 -2.85497,10.83127 -0.83586,26.12257 4.14714,31.40757 2.72118,2.8861 11.12986,0.66551 19.06977,-5.036 2.33659,-1.67786 4.52813,-2.77086 4.8701,-2.4289 1.2913,1.29131 -0.73634,5.37148 -4.82783,9.7149 -2.33145,2.475 -4.13106,5.0073 -3.99913,5.62734 0.13192,0.62004 -1.76646,1.63254 -4.21863,2.25 -5.28424,1.33059 -7.23092,1.33181 -10.55229,0.007 z m 39.61359,-2.9571 c -5.92835,-4.66324 -14.63415,-25.16032 -14.63415,-34.4549 0,-7.44676 -1.00782,-9.1106 -5.62358,-9.28412 -4.49766,-0.16909 -5.03042,-0.65123 -5.88971,-5.33022 -0.6451,-3.51269 -0.53786,-3.68563 3.01171,-4.8571 2.02434,-0.66809 4.87783,-0.9917 6.3411,-0.71913 5.42181,1.00994 27.05469,-3.23693 44.83401,-8.80162 3.71992,-1.16429 4.34486,-1.11693 5.75,0.43573 0.86706,0.95809 1.57647,2.23045 1.57647,2.82747 0,1.23051 -9.37452,7.26195 -11.26502,7.24776 -0.67924,-0.005 -5.73498,1.52609 -11.23498,3.40264 -5.5,1.87655 -11.86052,3.90821 -14.13448,4.5148 -4.34218,1.1583 -5.78491,3.77206 -4.59459,8.32388 0.4931,1.8856 1.08259,1.99141 8.13036,1.45945 4.17929,-0.31546 9.94512,-1.49214 12.81295,-2.61486 2.86783,-1.12272 5.90533,-1.77612 6.75,-1.45199 1.85409,0.71148 2.0269,5.34042 0.28576,7.65418 -1.58567,2.10716 -12.74622,6.30636 -19.26735,7.24942 -7.8794,1.13949 -7.89326,1.17138 -4.02135,9.25068 3.95468,8.25205 3.25219,8.16545 14.56524,1.79557 9.89652,-5.57229 14.91989,-7.75763 19.13037,-8.32237 3.09785,-0.41551 3.84309,-0.19906 3.84309,1.1162 0,0.89742 -0.47149,1.63167 -1.04775,1.63167 -0.57626,0 -2.03876,1.02866 -3.25,2.28591 -1.21124,1.25725 -4.22576,3.84475 -6.69893,5.75 -5.63067,4.33768 -8.8361,7.00829 -10.89653,9.07848 -4.30746,4.32785 -10.31793,5.08056 -14.47264,1.81247 z m 73.81118,-10.88577 c -2.92337,-1.18395 -8.02113,-7.27046 -10.98018,-13.10986 -4.2897,-8.46531 -11.01922,-29.07626 -13.46199,-41.23091 -1.64301,-8.17527 -0.8711,-8.87629 9.41322,-8.54869 4.44599,0.14163 14.10282,0.12215 21.45963,-0.0433 12.08419,-0.27173 13.56117,-0.11561 15.29328,1.6165 1.56561,1.5656 1.73045,2.40864 0.89874,4.59621 -0.56019,1.47342 -1.59217,2.71357 -2.29328,2.75591 -0.70111,0.0423 -2.62475,0.20294 -4.27475,0.35692 -1.65,0.15397 -9.4125,0.63864 -17.25,1.07704 -13.24281,0.74074 -15.89942,1.35164 -13.18183,3.0312 0.5875,0.3631 0.80488,1.34631 0.48308,2.18492 -0.78041,2.0337 2.81475,14.61132 7.04036,24.63063 3.70843,8.79302 7.96217,13.95676 9.49859,11.53062 0.48354,-0.76356 0.88607,-1.0552 0.89449,-0.64809 0.0154,0.74229 2.70649,-1.21758 6.16559,-4.49021 1.01735,-0.9625 2.26873,-1.75 2.78084,-1.75 0.51212,0 3.47175,-3.60516 6.57695,-8.01146 3.10521,-4.4063 6.06121,-7.75474 6.56888,-7.44098 1.90084,1.17478 0.93359,8.57832 -1.71009,13.08941 -3.31632,5.65888 -18.36177,21.39756 -20.36686,21.30529 -0.825,-0.038 -2.4246,-0.44349 -3.55467,-0.90117 z M 887.46986,618.25 c -0.9005,-1.42895 -1.67835,-6.81138 -2.13161,-14.75 -0.6318,-11.06553 -2.58372,-23.63831 -6.13237,-39.5 -0.61524,-2.75 -1.09766,-5.225 -1.07204,-5.5 0.0256,-0.275 -0.80251,-2.65416 -1.84028,-5.28702 -2.39355,-6.07248 -2.3808,-8.37827 0.0535,-9.68109 4.23958,-2.26895 7.01437,3.01258 12.72241,24.21579 0.62458,2.32011 3.33366,2.87703 12.33718,2.53622 7.40904,-0.28046 7.5,-0.25358 7.5,2.2161 0,1.95695 -0.96921,2.98874 -4.46189,4.75 -2.45404,1.2375 -5.82904,2.25689 -7.5,2.26531 -5.36161,0.027 -5.6488,0.6754 -4.44766,10.04135 2.40005,18.71422 1.65372,30.94334 -1.88841,30.94334 -0.9465,0 -2.35897,-1.0125 -3.13883,-2.25 z m 77.17624,-3.5027 c -9.98097,-8.77853 -12.18398,-28.36969 -3.04445,-27.07406 2.1382,0.30311 2.30504,0.7997 2.30504,6.86074 0,7.18735 1.52311,10.57006 5.78672,12.85188 2.27388,1.21694 3.07974,1.11515 7.28392,-0.92005 6.80235,-3.29297 11.28596,-7.60827 14.11662,-13.58671 2.55902,-5.40473 5.05153,-7.3945 6.46748,-5.16297 2.51597,3.96511 -1.59054,15.79357 -7.69473,22.16426 -5.425,5.66185 -11.14856,8.62039 -16.67017,8.61691 -3.5299,-0.002 -5.0446,-0.66654 -8.55043,-3.75 z m -52.78486,-8.70185 c -1.84533,-1.84532 -2.45455,-3.52232 -2.45455,-6.7566 0,-4.80881 1.48335,-10.84882 2.87793,-11.71854 1.32215,-0.82456 9.12491,-17.08161 9.10676,-18.97394 -0.0391,-4.07416 -1.21931,-4.29021 -11.73255,-2.14775 -10.49373,2.13848 -15.96913,2.53239 -17.87651,1.28607 -0.6184,-0.40408 -1.43013,-2.14472 -1.80384,-3.86809 -0.62253,-2.87077 -0.40894,-3.22772 2.5482,-4.25858 1.77523,-0.61885 6.13963,-1.59037 9.69868,-2.15893 8.78807,-1.4039 10.3561,-2.34326 9.58,-5.7391 -0.95759,-4.18995 -5.08323,-13.02561 -9.52469,-20.39854 -4.3465,-7.21529 -4.79517,-11.10797 -1.33736,-11.60304 3.22287,-0.46143 6.04,3.4524 14.3311,19.91007 l 7.72899,15.34191 4.95164,1.4125 c 4.11672,1.17433 6.4692,1.20592 13.95165,0.18739 13.61201,-1.85292 26.7553,-4.88701 28.43167,-6.56338 0.8233,-0.8233 1.05097,-1.4969 0.50595,-1.4969 -0.54502,0 -0.95077,-1.9125 -0.90166,-4.25 0.0491,-2.3375 -0.53061,-5.2281 -1.28826,-6.42356 -0.75765,-1.19545 -1.23583,-3.89545 -1.06262,-6 0.2755,-3.34742 0.66241,-3.86636 3.09067,-4.14535 2.42541,-0.27865 3.01712,0.22676 4.68814,4.00438 1.05182,2.37781 2.44308,6.57132 3.09168,9.31891 0.6486,2.74759 1.57751,5.67062 2.06424,6.49562 2.54007,4.30539 2.97805,6.48798 1.80033,8.97166 -0.6594,1.39058 -1.10479,4.32834 -0.98975,6.52834 0.42464,8.12055 0.14638,23.56676 -0.44168,24.51827 -0.33371,0.53995 -1.46863,0.98173 -2.52205,0.98173 -2.65074,0 -5.10472,-5.05968 -4.33079,-8.92933 0.75926,-3.79632 0.0528,-3.85316 -8.61466,-0.69313 -9.09798,3.317 -16.92058,5.62246 -19.0774,5.62246 -1.21353,0 -2.91648,2.04496 -5.07423,6.09331 -3.51931,6.60292 -5.87595,8.70939 -15.96568,14.27089 -7.76864,4.28211 -10.14021,4.4904 -13.44935,1.18125 z m 10.79819,-9.68071 c 1.1667,-0.6244 3.02197,-1.9744 4.12282,-3 1.10086,-1.02561 2.50511,-1.86474 3.12055,-1.86474 0.61545,0 1.85677,-1.6875 2.7585,-3.75 1.40739,-3.21908 1.47003,-4.58856 0.44245,-9.67295 -0.65838,-3.25762 -1.64706,-6.062 -2.19706,-6.23196 -1.50406,-0.46478 -12.94091,22.06354 -12.19186,24.01554 0.74616,1.94446 1.15553,1.99677 3.9446,0.50411 z m 30.03152,-23.4384 c 7.26665,-1.88298 14.55855,-5.47389 16.96574,-8.3548 0.9625,-1.15192 1.75,-2.31426 1.75,-2.58297 0,-0.91061 -4.47386,-0.49456 -11.50037,1.0695 -3.8498,0.85693 -10.71065,2.31943 -15.24635,3.25 -5.02337,1.03061 -8.248,2.18051 -8.25,2.94193 -0.002,0.6875 0.74672,1.25 1.66339,1.25 0.91666,0 1.37057,0.2961 1.00867,0.65799 -1.25601,1.25602 1.5857,3.34201 4.55276,3.34201 1.64077,0 5.71604,-0.70815 9.05616,-1.57366 z M 143.8748,528.05902 c -2.05224,-2.05224 -2.26662,-2.83786 -1.42898,-5.23674 0.8163,-2.33777 6.14324,-9.67132 13.46537,-18.53764 1.69236,-2.04927 1.52657,-2.16383 -5.5045,-3.80355 -6.26247,-1.46048 -34.25085,-12.34296 -37.37821,-14.53344 C 111.89174,485.15144 110.3297,484.5 109.55729,484.5 106.00766,484.5 82.444972,469.25802 66.43685,456.60671 56.37832,448.6574 43.907077,434.70748 38.029626,424.83133 32.254297,415.12678 27.053901,400.5763 24.865969,388 c -1.359006,-7.81161 -1.598099,-12.84491 -1.092552,-23 0.597518,-12.00254 1.288959,-16.25665 5.119847,-31.5 2.816179,-11.20576 13.944238,-38.10334 19.499043,-47.13105 1.65791,-2.69445 3.010088,-5.22974 3.00484,-5.63397 C 51.386217,279.893 27.996544,258.48409 25.532599,257.06079 22.774216,255.4674 3.6132393,238.57804 1.4637604,235.84542 c -2.37507327,-3.01941 -1.7967895,-4.71386 1.2770857,-3.74202 2.7756427,0.87755 16.9145479,12.24726 26.6079359,21.3966 6.361963,6.0049 19.714362,17.94193 22.66884,20.26592 2.882102,2.26706 3.583004,1.89313 6.329986,-3.37707 1.181432,-2.26663 4.149938,-6.88138 6.59668,-10.255 C 67.391029,256.76023 71.49176,250.85 74.057023,247 c 4.599549,-6.9031 27.243577,-34.74148 35.383347,-43.5 16.97318,-18.26341 33.64699,-34.16931 53.96632,-51.48091 5.775,-4.92017 10.725,-9.19322 11,-9.49566 4.11699,-4.52785 44.56694,-32.15338 65.5,-44.7336 24.71985,-14.855988 60.97139,-33.423449 84,-43.023462 26.69104,-11.126785 32.53268,-13.364206 33.43551,-12.806228 0.50946,0.314866 1.21316,0.108325 1.56377,-0.45898 0.72218,-1.168509 6.98103,-4.042259 10.00072,-4.591825 1.1,-0.200193 6.5,-1.916587 12,-3.814207 23.26634,-8.027397 67.66013,-19.419805 86,-22.069463 5.5,-0.794615 14.95,-2.362921 21,-3.485126 6.05,-1.1222054 15.95,-2.7274402 22,-3.567189 6.05,-0.8397487 13.13198,-1.8989456 15.73774,-2.3537709 C 533.16207,0.3074007 543.55611,0 580.40669,0 c 30.70984,0 36.1479,0.2479142 49.5,2.2566424 8.25,1.2411533 16.575,2.6729995 18.5,3.1818805 1.925,0.508881 7.325,1.9025891 12,3.0971291 11.06723,2.82786 32.87978,11.944512 40.5,16.927154 22.53982,14.738133 34.78166,27.479572 41.8301,43.537194 2.4142,5.5 4.96372,12.430359 5.6656,15.400799 1.69239,7.162439 0.72688,23.684621 -1.84656,31.599201 -3.02487,9.30295 -12.33312,26.71084 -18.79736,35.15405 -6.11147,7.98244 -24.65929,28.0601 -29.84588,32.3076 -1.65325,1.3539 -5.94239,5.1789 -9.53142,8.5 -10.3742,9.5997 -33.76587,27.63422 -73.97448,57.03288 -1.925,1.40747 -7.1,4.90525 -11.5,7.77283 -4.4,2.86758 -8.23484,5.52848 -8.52186,5.91309 -0.81814,1.09633 -6.65237,4.91797 -16.97814,11.12131 -5.225,3.13899 -10.625,6.56041 -12,7.60316 -4.22846,3.2067 -19.43318,12.8797 -22.29449,14.1834 -3.00534,1.36932 -3.38574,3.42825 -1.17371,6.35281 3.4393,4.54715 1.07785,11.01177 -6.89284,18.86962 -4.23578,4.17581 -4.30875,4.34563 -1.77801,4.13782 1.45148,-0.11918 5.11405,-0.92325 8.13905,-1.78682 3.025,-0.86356 6.625,-1.88202 8,-2.26323 3.91422,-1.08521 39.11569,-21.62806 41.04546,-23.95329 0.71243,-0.85843 2.78686,-2.18398 4.60984,-2.94567 1.82297,-0.76169 5.41101,-2.98569 7.9734,-4.94222 2.5624,-1.95654 5.20851,-3.55734 5.88024,-3.55734 0.67174,0 2.29453,-0.8393 3.6062,-1.8651 1.31167,-1.02581 4.85986,-3.18633 7.88486,-4.80115 3.025,-1.61483 7.525,-4.4203 10,-6.23438 2.475,-1.81408 5.4,-3.70249 6.5,-4.19646 2.37067,-1.06459 5.7964,-3.16542 6.5,-3.98613 0.275,-0.32077 3.18004,-1.84024 6.45565,-3.37659 3.27561,-1.53634 6.77335,-3.8329 7.77276,-5.10344 0.99942,-1.27055 4.39437,-3.27303 7.54435,-4.44996 3.14998,-1.17693 7.13036,-3.00543 8.84527,-4.06333 1.71492,-1.0579 3.66363,-1.92346 4.33047,-1.92346 0.66684,0 6.91372,-3.46807 13.88196,-7.70682 12.55092,-7.63466 34.64515,-19.26905 61.66954,-32.47396 7.7,-3.76245 14.675,-7.27982 15.5,-7.81637 0.825,-0.53656 4.425,-2.35069 8,-4.0314 3.575,-1.6807 10.1,-4.82115 14.5,-6.97876 4.4,-2.15762 14.75,-6.90708 23,-10.55436 8.25,-3.64728 23.55,-10.436 34,-15.08604 10.45,-4.65005 19.9,-8.8258 21,-9.27945 1.1,-0.45365 5.61999,-2.45562 10.04442,-4.44883 4.42442,-1.99321 8.47442,-3.62555 9,-3.62744 0.52557,-0.002 4.33058,-1.40721 8.45558,-3.12295 10.06009,-4.18435 18.67784,-7.3903 29.5,-10.97448 4.95,-1.63938 9.9,-3.41879 11,-3.95424 4.9371,-2.40324 41.6768,-14.2667 47.74917,-15.41848 3.71204,-0.70408 7.31204,-1.73041 8,-2.28073 1.28996,-1.03189 11.20134,-3.63525 18.25084,-4.79386 2.2,-0.36157 6.2591,-1.28801 9.0201,-2.05875 20.745,-5.790877 46.6341,-9.825036 69.9799,-10.904584 15.0321,-0.695112 18.192,-0.04636 21.1598,4.344228 3.4001,5.030296 1.3686,9.379426 -7.1598,15.327736 -7.9499,5.54485 -28.519,16.56546 -39.7182,21.28036 -23.0529,9.70539 -43.541,18.42198 -47.7818,20.32864 -25.43861,11.43711 -34.45846,15.39806 -40.00001,17.56546 -6.8449,2.67718 -8.95675,3.58157 -29,12.41917 -6.875,3.03136 -17.45,7.51878 -23.5,9.97204 -10.82732,4.39043 -19.68262,8.22575 -20.3299,8.80508 -0.42089,0.37669 2.48309,4.95836 6.00156,9.46879 4.28517,5.49328 10.70709,17.80195 11.39222,21.83509 0.34242,2.0157 1.44098,5.93834 2.44126,8.71697 2.29452,6.3739 6.59236,23.38861 7.55213,29.89814 0.94606,6.41653 4.52431,14.43418 8.42431,18.87604 3.87601,4.41453 9.13284,5.67376 23.68585,5.67376 11.31047,0 21.54698,-1.61352 38.33258,-6.04214 5.775,-1.52364 14.9579,-3.72942 20.4065,-4.90174 5.4485,-1.17231 10.3596,-2.41157 10.9135,-2.75391 0.948,-0.58588 9.867,-2.14334 24.68,-4.30968 3.575,-0.52283 13.475,-1.61871 22,-2.43529 8.525,-0.81658 19.8372,-1.94245 25.1382,-2.50192 15.0464,-1.58803 44.1479,-0.41199 69.8618,2.82322 11.6369,1.46412 19.4012,6.94549 20.5335,14.49616 1.6057,10.70779 -8.13,19.45611 -31.0335,27.88616 -9.9356,3.65699 -29.3041,9.73914 -31.0141,9.73914 -0.6995,0 -6.3825,1.5498 -12.6289,3.444 -18.4288,5.5885 -38.8327,10.75691 -76.857,19.46823 -9.625,2.20508 -20.425,4.7273 -24,5.60495 -3.575,0.87765 -9.425,2.25094 -13,3.05177 -3.575,0.80083 -11.90001,2.78482 -18.50001,4.40886 -6.6,1.62404 -16.275,3.90006 -21.5,5.05782 -5.225,1.15776 -20.3,4.71898 -33.5,7.91383 -13.2,3.19485 -24.675,5.83487 -25.5,5.86671 -0.825,0.0319 -10.5,2.32598 -21.5,5.09806 -11,2.77209 -20.1125,5.05042 -20.25,5.06297 -0.1375,0.0125 -0.25,2.03869 -0.25,4.50256 0,5.25306 -2.15269,11.25602 -6.26973,17.48371 -2.29875,3.47722 -2.70774,4.80297 -1.85098,6 2.57575,3.59871 5.12071,9.11152 5.12071,11.09232 0,9.06179 -23.4238,20.07653 -68,31.97611 -8.525,2.27574 -19.1,5.226 -23.5,6.55612 -10.84188,3.27751 -50.75117,12.89322 -68.17716,16.42655 -7.79744,1.58102 -19.72244,4.23137 -26.5,5.88966 -14.73777,3.60594 -33.44187,7.35004 -47.82284,9.57296 -21.36481,3.30243 -29.18579,4.60609 -36,6.00074 -3.37362,0.69048 -5.09044,0.93458 -39,5.54514 -32.2392,4.38345 -67.22432,7.93457 -79,8.01879 -4.125,0.0295 -12.225,0.68751 -18,1.46224 -14.29827,1.91815 -68.31064,1.35606 -78.5,-0.81693 -35.31483,-7.53125 -51.40389,-18.68102 -53.13155,-36.82035 -0.69426,-7.28931 2.20838,-12.7475 10.2861,-19.3422 8.25257,-6.73747 11.26816,-8.65428 21.84545,-13.88571 37.26858,-18.43273 76.27815,-28.29128 141,-35.63373 19.9246,-2.26037 53.54821,-3.71372 79,-3.41471 48.94553,0.57502 92.99942,1.51426 95.75,2.0414 1.75091,0.33557 2.75,0.096 2.75,-0.6594 0,-0.65255 -0.58101,-0.96349 -1.29112,-0.691 -0.8113,0.31133 -1.36622,-0.41188 -1.49319,-1.94602 -0.11113,-1.34281 -0.65513,-3.28803 -1.20888,-4.32272 -2.33591,-4.36469 -0.99764,-7.26608 10.27663,-22.27989 7.16008,-9.53499 8.65905,-13.21892 6.32742,-15.55056 -1.52667,-1.52667 -2.56094,-1.48965 -14.37793,0.5146 -11.44507,1.94117 -40.39978,10.55427 -49.62659,14.76233 -1.70849,0.77919 -5.35634,2.10221 -8.10634,2.94006 -2.75,0.83784 -11.525,3.83051 -19.5,6.65036 -24.42049,8.63476 -32.49342,9.9394 -35.4433,5.72786 -2.4652,-3.51956 -1.8823,-5.39484 3.1933,-10.27333 6.54246,-6.28839 32.55976,-23.57703 51.25,-34.05591 4.675,-2.62109 9.85,-5.75251 11.5,-6.95872 1.65,-1.20621 4.55825,-2.99587 6.46279,-3.97703 3.58039,-1.84452 11.8108,-9.5125 10.21021,-9.5125 -1.39404,0 -21.56153,5.48621 -32.173,8.7521 -19.15196,5.89439 -45.55032,18.22021 -69,32.21721 -29.55026,17.63841 -45.67056,26.82399 -61.74958,35.18582 l -8.24957,4.29016 -2.10512,-2.10511 c -3.14493,-3.14494 -1.79892,-5.32893 6.34727,-10.29886 3.99135,-2.43509 11.532,-7.33248 16.757,-10.88309 5.225,-3.55062 12.875,-8.05857 17,-10.01768 4.125,-1.95912 11.775,-6.0223 17,-9.02929 5.225,-3.007 14.225,-7.69516 20,-10.41814 20.53605,-9.68299 23.66594,-11.22991 38,-18.78124 7.975,-4.20131 31.6,-16.32203 52.5,-26.93495 20.9,-10.61291 41.60475,-21.13687 46.01057,-23.38657 4.40581,-2.2497 11.38081,-5.61073 15.5,-7.46897 4.11918,-1.85823 10.0585,-4.67073 13.19847,-6.25 3.13997,-1.57926 6.33967,-2.87139 7.11045,-2.87139 0.77078,0 3.15171,-1.19863 5.29096,-2.66362 2.13925,-1.46499 7.93955,-4.42861 12.88955,-6.58582 4.95,-2.15721 15.525,-7.07172 23.5,-10.92113 7.975,-3.84941 16.65036,-7.85929 19.27857,-8.91085 2.62821,-1.05155 10.80798,-4.83842 18.17725,-8.41525 7.36927,-3.57683 13.68416,-6.50333 14.03309,-6.50333 0.55237,0 11.15998,-4.7896 18.48653,-8.34713 1.36149,-0.66109 3.16149,-2.53486 4,-4.16392 7.0007,-13.60101 17.67441,-23.69945 29.67613,-28.07672 6.29097,-2.29445 8.36961,-2.60608 13.92361,-2.08744 3.64965,0.34081 9.05481,1.74333 12.25717,3.18046 l 5.72851,2.5708 8.61692,-4.03802 c 4.73931,-2.22092 9.27532,-4.03803 10.08003,-4.03803 0.8047,0 3.12088,-1.125 5.14705,-2.5 2.02618,-1.375 4.50887,-2.5 5.5171,-2.5 1.00823,0 2.39335,-0.675 3.07804,-1.5 0.68469,-0.825 1.68428,-1.5 2.22132,-1.5 0.53703,0 2.39443,-0.60668 4.12755,-1.34818 1.73312,-0.74149 5.62613,-2.14988 8.65113,-3.12974 3.025,-0.97986 10,-3.93469 15.5,-6.56629 5.5,-2.63159 11.125,-5.10799 12.5,-5.5031 1.375,-0.39511 6.55,-2.62774 11.5,-4.9614 7.93977,-3.74318 24.36021,-10.64817 33.00001,-13.87692 1.65,-0.61661 5.1942,-2.3571 7.876,-3.86774 2.6817,-1.51065 5.6067,-2.7496 6.5,-2.75322 0.8932,-0.004 2.974,-0.90066 4.624,-1.99341 1.65,-1.09275 3.9124,-1.98979 5.0275,-1.99341 1.1151,-0.004 2.9151,-0.60131 4,-1.3282 1.0849,-0.72688 6.0033,-3.03177 10.9299,-5.12199 25.163,-10.676 45.8318,-22.4912 48.6912,-27.83411 0.7045,-1.3164 0.7112,-1.753683 0.02,-1.32666 -0.5669,0.35035 -1.3134,0.17965 -1.6588,-0.37932 -1.4301,-2.313885 -32.0754,0.12187 -54.5101,4.33258 -7.425,1.39358 -15.75,2.80566 -18.5,3.13795 -2.75,0.33229 -7.25,1.22288 -10,1.97909 -2.75,0.75621 -8.375,2.14448 -12.5,3.08506 -4.125,0.94057 -12.00001,3.18477 -17.50001,4.98712 -5.5,1.80235 -11.56023,3.60082 -13.46718,3.9966 -1.90694,0.39578 -4.15694,1.09275 -5,1.54882 -0.84305,0.45607 -5.80782,2.01052 -11.03282,3.45432 -12.52538,3.46109 -38.58386,12.37527 -48,16.42002 -4.125,1.77191 -11.32204,4.58264 -15.99342,6.24606 -9.76542,3.47735 -39.11797,15.9091 -52.85815,22.38712 -5.14336,2.42492 -9.55679,4.40895 -9.80761,4.40895 -0.25083,0 -5.94262,2.50878 -12.64843,5.57506 -19.96731,9.1302 -20.73289,9.47009 -26.06466,11.57168 -2.81751,1.11055 -5.57386,2.38268 -6.12523,2.82695 -0.55138,0.44427 -5.2775,2.95905 -10.5025,5.5884 -33.91351,17.0661 -96.06126,49.81242 -99.5,52.42761 -0.55,0.41828 -7.3,4.26965 -15,8.55861 -7.7,4.28896 -16.34088,9.29516 -19.20196,11.1249 -2.86108,1.82973 -5.41555,3.32679 -5.6766,3.32679 -0.43247,0 -3.90738,2.09765 -23.62144,14.25921 -3.575,2.20541 -11,6.71818 -16.5,10.02838 -5.5,3.3102 -10.90614,6.82819 -12.01365,7.81775 -1.1075,0.98956 -3.61833,2.46968 -5.5796,3.28916 -1.96128,0.81947 -4.10473,2.13913 -4.76323,2.93257 -0.97875,1.17931 -0.73941,1.55754 1.31126,2.07223 3.6765,0.92274 9.54522,6.44504 9.54522,8.98179 0,2.47953 -2.29859,6.07623 -5.97716,9.35271 -5.29513,4.71634 -30.1086,21.41027 -43.52284,29.28118 -7.7,4.51803 -23.675,13.9613 -35.5,20.98504 -11.825,7.02374 -22.9816,13.51852 -24.79244,14.43284 -1.81085,0.91432 -6.38965,3.66596 -10.17511,6.11477 -3.78546,2.4488 -7.14917,4.45237 -7.4749,4.45237 -0.7154,0 -17.64861,9.35305 -22.55755,12.45965 -7.23993,4.58176 -13,4.39427 -13,-0.42315 0,-2.24779 1.68365,-4.41258 8.198,-10.54082 4.5089,-4.24165 13.12223,-11.6009 19.14074,-16.35389 6.01851,-4.75298 15.71691,-12.434 21.552,-17.06892 5.83509,-4.63492 13.53426,-10.42576 17.10926,-12.86853 3.575,-2.44277 6.77531,-4.8765 7.1118,-5.40828 0.3365,-0.53178 0.88465,-0.94259 1.21812,-0.91289 0.33347,0.0297 1.85816,-1.10188 3.3882,-2.5146 4.36359,-4.02901 14.30483,-11.21109 17.43736,-12.59769 1.56449,-0.6925 2.84452,-1.58303 2.84452,-1.97894 0,-0.39591 1.67946,-1.86106 3.73213,-3.25589 4.65256,-3.16149 3.77256,-3.18226 -4.61114,-0.10881 -9.72913,3.56666 -16.64069,7.0765 -25.62099,13.01085 -13.82949,9.13878 -39.1479,24.30334 -52,31.1456 -4.95,2.6353 -12.15,6.72053 -16,9.07829 -3.85,2.35776 -10.825,6.24496 -15.5,8.63822 -11.16513,5.71574 -21.88685,11.59191 -25,13.70156 -6.16255,4.17629 -15.91075,8.99824 -18.19081,8.99824 -1.3744,0 -3.32333,-0.91097 -4.33095,-2.02438 -1.77863,-1.96536 -1.77331,-2.10384 0.18229,-4.75 1.10788,-1.49909 6.92506,-6.48864 12.92705,-11.08788 24.16588,-18.51798 60.19172,-39.91696 81.63921,-48.49287 3.69957,-1.47929 10.67457,-4.65516 15.5,-7.05749 4.82543,-2.40232 10.57351,-4.92941 12.77351,-5.61574 16.93192,-5.28227 47.5,-29.30786 47.5,-37.33357 0,-2.09967 -4.15784,-2.79904 -6.48295,-1.09047 -6.37049,4.68127 -37.12227,24.4524 -38.03296,24.4524 -0.41392,0 -6.42513,3.90488 -10.16683,6.60437 -1.20051,0.86611 -2.55051,1.61481 -3,1.66376 -0.44949,0.049 -1.3792,0.65095 -2.06602,1.33777 -0.68682,0.68682 -6.31182,4.02479 -12.5,7.41771 -6.18818,3.39292 -12.15738,7.00414 -13.26489,8.02494 -1.1075,1.0208 -3.5825,2.52565 -5.5,3.34412 -1.91749,0.81847 -5.94618,3.08995 -8.95263,5.04773 -3.00645,1.95778 -5.83826,3.5596 -6.2929,3.5596 -0.45465,0 -3.16983,1.73265 -6.03373,3.85033 -2.8639,2.11768 -9.25709,6.18289 -14.20709,9.0338 -4.95,2.85092 -11.78579,6.92456 -15.19064,9.05253 -3.40485,2.12798 -7.73794,4.37971 -9.62908,5.00384 -1.89114,0.62414 -4.23115,2.01072 -5.20001,3.0813 -1.74868,1.93227 -15.6669,10.9782 -16.89123,10.9782 -0.35141,0 -6.46648,3.825 -13.58904,8.5 -7.12256,4.675 -13.37384,8.5 -13.89172,8.5 -0.51789,0 -1.09161,0.3375 -1.27495,0.75 -0.64036,1.44082 -12.83758,8.36541 -13.74609,7.80392 -0.50403,-0.31151 -1.06735,-0.16513 -1.25183,0.32528 -0.18448,0.49042 -3.85046,3.08072 -8.14663,5.75623 -4.29617,2.67552 -10.6766,6.66457 -14.17873,8.86457 -10.48049,6.58373 -25.63156,15.89644 -31.74883,19.51464 -5.06491,2.99576 -6.1159,4.19813 -8.9505,10.23966 -6.47645,13.80365 -20.77169,22.47237 -45.72429,27.7275 -8.81014,1.85545 -17.85803,5.45152 -22.58643,8.97693 -3.45692,2.57742 -23.08079,12.10226 -28.5,13.83305 -10.73012,3.42699 -12.77131,3.52782 -15.53189,0.76724 z m 28.58123,-14.70779 c 6.57286,-3.41147 11.95066,-6.50994 11.95066,-6.88549 0,-1.10064 -14.60576,-3.2815 -17.3553,-2.59141 -1.38155,0.34674 -3.52959,2.09187 -4.77343,3.87806 -1.24383,1.78618 -3.97371,5.22347 -6.06639,7.6384 -7.75829,8.95299 -4.03388,8.48537 16.24446,-2.03956 z m 284.45066,2.1329 c 20.08953,-1.37999 32.07036,-2.57212 50,-4.97518 8.25,-1.10573 21.75,-2.70155 30,-3.54628 16.92289,-1.73275 25.83226,-2.95214 36,-4.92718 3.85,-0.74784 7.9,-1.38534 9,-1.41668 3.1475,-0.0897 15.32974,-2.07666 22.9261,-3.7394 3.80936,-0.83382 10.10936,-1.90737 14,-2.38568 3.89065,-0.4783 9.86312,-1.35364 13.27216,-1.94519 3.40905,-0.59155 7.45905,-1.25682 9,-1.47836 1.54096,-0.22155 4.32831,-0.87743 6.19411,-1.45752 1.86581,-0.58009 3.72212,-0.85092 4.12514,-0.60184 0.40302,0.24908 2.70145,-0.15731 5.10763,-0.90309 3.86282,-1.19727 12.45571,-3.01856 19.87486,-4.21256 3.54089,-0.56985 24.26467,-5.12598 32,-7.03522 3.575,-0.88238 9.2,-2.17751 12.5,-2.87806 5.84934,-1.24174 15.90144,-3.53887 26,-5.94156 2.75,-0.65429 6.125,-1.6612 7.5,-2.23758 1.375,-0.57637 4.075,-1.37196 6,-1.76797 1.925,-0.39602 8.9,-2.20039 15.5,-4.00972 6.6,-1.80933 13.125,-3.53977 14.5,-3.84541 1.375,-0.30565 6.49596,-1.9336 11.3799,-3.61768 4.88395,-1.68409 9.6831,-3.06197 10.66478,-3.06197 2.33919,0 23.32964,-8.04932 33.25223,-12.75141 9.6947,-4.5941 11.44613,-6.32239 9.88319,-9.75265 -1.44382,-3.16884 -4.18202,-3.21846 -13.57229,-0.24594 -6.83112,2.16241 -8.52864,2.25 -43.60781,2.25 -21.08688,0 -43.0453,-0.54393 -52,-1.2881 -11.86503,-0.98601 -16.67257,-1.0189 -20.5,-0.14024 -10.22264,2.34681 -63.62174,17.37551 -92.5,26.03329 -4.125,1.23669 -7.8375,2.16899 -8.25,2.07179 -0.4125,-0.0972 -0.75,0.22707 -0.75,0.72061 0,1.30848 -12.17234,3.21818 -15.83871,2.48491 -4.0579,-0.81158 -3.1653,-2.10065 2.43018,-3.50961 2.46001,-0.61944 5.03999,-1.9361 5.73329,-2.92592 0.75328,-1.07546 5.06634,-2.85425 10.71789,-4.42028 5.20154,-1.44133 13.28235,-3.90251 17.95735,-5.46929 20.68153,-6.93119 33.79277,-10.97685 37.5,-11.57116 3.54352,-0.56806 17.82361,-4.56055 22.87437,-6.39532 2.20883,-0.80239 -26.70187,-2.94515 -54.41007,-4.03268 -30.40091,-1.19322 -108.9641,-1.18396 -123.9643,0.0146 -45.68598,3.65047 -87.56707,10.13777 -112.5,17.42604 -4.4,1.28618 -11.32661,3.30758 -15.39246,4.49199 -10.57931,3.08183 -30.34788,11.35109 -39.10754,16.35883 -4.125,2.35818 -8.9273,4.85928 -10.67179,5.558 -4.12274,1.65127 -16.01042,13.97817 -16.90063,17.52508 -2.10624,8.39193 8.53698,21.1293 21.57242,25.81698 12.65047,4.54925 26.08853,7.16916 41.5,8.09093 12.91448,0.77242 47.50983,0.57034 61,-0.35632 z M 207.09055,493.63915 c 4.29888,-2.78438 8.35965,-5.52975 9.02393,-6.10083 0.66429,-0.57107 1.40278,-1.03832 1.6411,-1.03832 0.23831,0 4.4198,-2.38673 9.2922,-5.30385 4.8724,-2.91712 11.07261,-6.62962 13.77823,-8.25 2.70563,-1.62038 6.25724,-4.1035 7.89247,-5.51804 2.96926,-2.56853 2.97151,-2.579 1.71946,-8 -0.97578,-4.22489 -5.29285,-15.79335 -6.62429,-17.75114 -0.12082,-0.17766 -2.51182,1.28484 -5.31332,3.25 -2.8015,1.96517 -7.45614,5.2196 -10.34364,7.23207 -2.8875,2.01246 -10.875,8.20375 -17.75,13.7584 -6.875,5.55465 -14.3,11.44022 -16.5,13.07903 -6.19308,4.61332 -20.5,17.54814 -20.5,18.53395 0,0.99621 11.60326,1.81758 20.18386,1.42878 4.91369,-0.22265 6.74295,-0.94352 13.5,-5.32005 z m -39.07465,-1.38243 c 2.68993,-2.33381 6.27094,-5.59631 7.95779,-7.25 12.29023,-12.04869 32.29373,-27.77771 61.17769,-48.10484 1.36934,-0.96368 1.18903,-1.63705 -1.47275,-5.5 -2.64478,-3.83828 -18.71537,-19.54705 -30.77194,-30.07912 -4.78054,-4.17607 -32.9179,-25.66867 -41.00665,-31.32276 -3.14733,-2.2 -9.30585,-6.7 -13.68561,-10 -4.37975,-3.3 -10.00661,-7.46543 -12.50411,-9.25652 -2.49751,-1.79108 -10.71098,-8.39052 -18.25217,-14.66543 -7.54119,-6.27491 -16.8253,-13.77707 -20.631361,-16.67148 -3.806053,-2.8944 -10.810491,-8.66996 -15.565413,-12.83456 C 78.506453,302.4074 71.306453,296.3 67.261376,293 c -4.045078,-3.3 -7.504687,-6.3375 -7.68802,-6.75 -1.935163,-4.35412 -13.520565,16.28242 -19.789433,35.25 -8.96962,27.13918 -10.195782,34.6206 -9.216812,56.23631 0.652008,14.39637 2.375414,22.75776 6.340853,30.76369 0.681056,1.375 2.19989,4.46066 3.375188,6.85702 5.007652,10.21031 10.823445,18.23803 21.958373,30.30985 14.058675,15.24157 51.778305,37.41792 77.165165,45.3674 21.14215,6.62031 22.32919,6.67104 28.60921,1.22245 z m 62.24562,-1.29123 c 5.64602,-2.82641 9.869,-5.67328 11.21074,-7.55758 1.18394,-1.66268 1.9339,-3.24178 1.66658,-3.5091 -0.26732,-0.26731 -4.25391,2.09661 -8.85909,5.25317 -4.60518,3.15657 -10.17306,6.77077 -12.37306,8.03157 -7.1261,4.08389 -0.96829,2.4491 8.35483,-2.21806 z m 33.48169,-32.33067 c 2.28992,-1.57584 8.66348,-5.4697 14.16348,-8.653 5.5,-3.1833 13.93355,-8.30647 18.74121,-11.38482 4.80767,-3.07835 10.11651,-6.33809 11.79742,-7.24386 1.68091,-0.90577 4.72236,-2.76497 6.75878,-4.13155 6.00573,-4.03028 18.97799,-11.9864 29.70259,-18.21714 9.78977,-5.68763 14.4698,-8.55622 47,-28.80829 8.8,-5.47855 19.60332,-11.87138 24.00738,-14.20629 4.40406,-2.33492 12.39778,-7.22199 17.76382,-10.86017 5.36604,-3.63817 12.56272,-8.02802 15.99262,-9.75522 3.4299,-1.72721 8.03618,-4.35479 10.23618,-5.83907 2.2,-1.48428 4.71153,-2.95618 5.58117,-3.27088 0.86964,-0.3147 7.08793,-4.21066 13.81842,-8.65768 6.73049,-4.44702 15.24396,-9.7209 18.91883,-11.71974 7.8757,-4.28375 19.12385,-11.6248 19.15778,-12.50324 0.0338,-0.8751 -10.90078,1.68759 -21.4762,5.03329 -4.95,1.56601 -12.375,3.84873 -16.5,5.07272 -4.125,1.22399 -8.97777,2.85198 -10.78393,3.61777 -1.80616,0.76579 -3.93819,1.39235 -4.73785,1.39235 -0.79967,0 -7.8719,2.96675 -15.71608,6.59278 -7.84418,3.62604 -20.76963,9.4938 -28.72323,13.03949 -7.9536,3.54568 -19.6536,9.20778 -26,12.58244 -6.3464,3.37466 -17.36629,9.04912 -24.48865,12.6099 -7.12236,3.56079 -16.01812,8.45908 -19.76835,10.88509 -3.75023,2.42601 -10.74784,6.45635 -15.55025,8.9563 -7.75574,4.03734 -23.90426,13.8724 -25.23166,15.36703 -0.275,0.30965 -2.75,1.84484 -5.5,3.41155 -2.75,1.56671 -7.08529,4.3576 -9.63398,6.20199 -2.54868,1.84439 -5.03395,3.35343 -5.5228,3.35343 -0.48886,0 -3.12857,1.5122 -5.86602,3.36044 -2.73746,1.84824 -10.1522,6.77345 -16.4772,10.94491 -6.325,4.17146 -12.76691,8.66527 -14.31535,9.98624 l -2.81535,2.40178 3.45614,6.40331 c 1.90088,3.52183 4.21645,8.76582 5.14572,11.65332 0.92927,2.8875 1.91734,5.25 2.19573,5.25 0.27838,0 2.37972,-1.28933 4.66963,-2.86518 z m -11.83652,-32.07608 c 17.41925,-12.16256 56.60502,-37.39422 69.5,-44.75095 6.325,-3.60848 12.69311,-7.29143 14.15135,-8.18433 7.12949,-4.3655 15.76847,-9.12346 16.56535,-9.12346 0.49046,0 3.11734,-1.4222 5.83752,-3.16044 11.3147,-7.2303 59.86332,-31.77076 75.94578,-38.38924 14.94373,-6.14985 23.99415,-10.03664 26.18426,-11.24509 1.20134,-0.66288 2.77634,-1.20844 3.5,-1.21237 0.72366,-0.004 5.49742,-1.58457 10.60837,-3.51254 16.02564,-6.04523 41.5493,-12.13598 54.20737,-12.9356 4.51169,-0.28501 12.14859,-3.86532 17,-7.96991 4.27968,-3.62087 26.06279,-17.57481 27.43555,-17.57481 1.01394,0 40.93613,-27.75446 56.06445,-38.97679 4.95,-3.67195 11.925,-8.79105 15.5,-11.37577 26.61139,-19.23999 59.48162,-48.71445 72.65313,-65.14744 14.02199,-17.49407 20.43771,-28.89066 23.95896,-42.5596 4.45862,-17.307633 2.46396,-30.250193 -7.23447,-46.941711 -6.096,-10.491546 -22.09608,-25.431044 -32.87762,-30.698308 -2.2,-1.074798 -8.63551,-4.538948 -14.30112,-7.698112 -10.47944,-5.84336 -23.73591,-10.024259 -40.17394,-12.670272 -3.56129,-0.573257 -6.73763,-1.467124 -7.05855,-1.986371 -0.32091,-0.519247 -3.70713,-1.18142 -7.52493,-1.471496 -3.8178,-0.290075 -9.64146,-0.950818 -12.94146,-1.468316 -11.1366,-1.7464165 -42.58401,-2.2816053 -64.5,-1.0976958 -27.5193,1.4866018 -39.76493,2.9786188 -74.5,9.0771388 -3.3,0.579389 -11.4,1.963381 -18,3.075538 -19.28373,3.249474 -26.85324,5.132057 -67.65679,16.826637 -5.86123,1.679871 -15.08623,4.809965 -20.5,6.955766 -5.41376,2.145801 -10.96821,4.224299 -12.34321,4.618884 -7.0055,2.010374 -43.01411,16.490989 -53.5,21.514659 -6.6,3.161983 -14.7,6.969881 -18,8.461995 -3.3,1.492115 -8.925,4.409588 -12.5,6.483273 -3.575,2.073686 -10.775,6.179824 -16,9.124751 -29.1737,16.44295 -54.34731,32.80617 -71.35742,46.38338 -35.70189,28.49671 -34.95201,27.85169 -53.90466,46.36671 -27.0958,26.47014 -49.862841,52.93761 -62.556984,72.72467 -3.873712,6.03816 -8.424124,12.71464 -10.112025,14.83662 -4.278642,5.37897 -3.927872,7.40407 2.10311,12.14186 2.800495,2.2 7.668175,6.25 10.817065,9 3.14889,2.75 8.990936,7.7 12.982323,11 3.991387,3.3 7.76816,6.46404 8.392829,7.0312 0.624669,0.56717 4.060762,3.25519 7.635762,5.97339 3.575,2.7182 7.625,6.00033 9,7.29363 2.55505,2.40323 41.63915,32.06543 67.89506,51.52778 19.84917,14.71332 28.04827,21.80199 45.60993,39.43288 8.24725,8.27976 15.44501,15.08411 15.99501,15.12077 0.55,0.0367 4.15,-2.13274 8,-4.82091 z m 578.91047,-6.51227 c 1.81295,-0.8385 1.79476,-0.92641 -0.35637,-1.72216 -2.86334,-1.05922 -48.68295,-3.0088 -56.0541,-2.38505 -7.6845,0.65026 -18,2.77449 -18,3.70667 0,1.09387 14.10488,1.52671 45.5,1.3963 14.85,-0.0617 27.85971,-0.50979 28.91047,-0.99576 z M 851.98514,410.75 c 1.5487,-2.0625 3.0956,-3.975 3.43754,-4.25 1.13075,-0.90937 3.88859,-8.76209 3.2881,-9.36258 -0.324,-0.324 -0.0199,-1.27496 0.67585,-2.11325 1.67207,-2.01472 -0.49433,-2.03803 -7.39205,-0.0796 -2.79834,0.79453 -8.68789,2.19047 -13.08789,3.10208 -4.4,0.91161 -13.625,3.15943 -20.5,4.99515 -6.875,1.83573 -14.19247,3.6408 -16.26105,4.01129 -6.29757,1.12789 -5.25515,2.44566 1.95203,2.46764 7.97886,0.0243 32.25229,2.53457 37.30902,3.85829 6.29093,1.64681 7.61481,1.31779 10.57845,-2.62906 z m -113.57845,0.69351 c 16.83738,-1.10775 31.77412,-3.53325 42.5,-6.90135 3.3,-1.03625 7.35,-2.11889 9,-2.40587 8.31672,-1.44649 21.2873,-4.75015 23.5,-5.98555 1.375,-0.76768 6.775,-2.18003 12,-3.13853 5.225,-0.95851 10.25807,-2.1263 11.1846,-2.5951 0.92653,-0.46881 4.30153,-1.3151 7.5,-1.88066 3.19847,-0.56556 8.0654,-1.64798 10.8154,-2.40539 l 5,-1.3771 -0.31602,-6.81544 c -0.34197,-7.37523 -3.99936,-22.67332 -9.56624,-40.01357 -2.88291,-8.97997 -7.73078,-26.5997 -10.12047,-36.78318 -6.40422,-27.29097 -7.94356,-37.60085 -7.97179,-53.39177 -0.0158,-8.82631 -0.40609,-14.24446 -1.02548,-14.23545 -2.20742,0.0321 -10.07559,3.25606 -19.54943,8.01026 -5.49785,2.75895 -16.39835,7.76593 -24.22333,11.12662 -7.82498,3.36069 -24.35224,11.18241 -36.72724,17.38159 -27.0036,13.52728 -38.46022,18.94227 -46.60385,22.0274 -3.35711,1.2718 -11.23211,5.05878 -17.5,8.41549 -6.26788,3.35672 -14.32115,7.54784 -17.89615,9.31361 -3.575,1.76576 -6.725,3.45668 -7,3.7576 -0.275,0.30092 -3.2,1.8298 -6.5,3.39751 -13.08971,6.21845 -21.82732,10.67472 -23.86278,12.17025 l -2.13722,1.57029 2.15324,-0.62926 c 1.18429,-0.3461 4.78429,-1.08921 8,-1.65136 13.06693,-2.28426 12.91348,-2.286 15.20309,0.17161 2.71112,2.91005 2.70516,4.9403 -0.0247,8.41072 -3.31145,4.20983 -16.06008,13.99425 -23.59491,18.1088 -7.14849,3.9036 -7.41012,4.06337 -25.23675,15.41208 -23.39451,14.89332 -28.52297,18.27315 -29.5,19.44155 -0.55,0.65773 -1.9,1.75422 -3,2.43665 -1.73403,1.07577 -1.45634,1.16772 2.08815,0.69147 5.17197,-0.69493 15.06781,-3.76534 38.41185,-11.91818 10.175,-3.55359 23,-8.03164 28.5,-9.95122 20.06162,-7.00181 35.18797,-10.70803 43.70315,-10.70803 7.01072,0 9.22817,0.99956 11.35911,5.12033 2.93242,5.67069 -0.08,13.50183 -9.57044,24.87967 -2.06444,2.475 -5.11874,6.81719 -6.78734,9.6493 -2.75096,4.66922 -2.8985,5.34249 -1.58252,7.22132 3.73553,5.33321 21.59842,6.55847 59.37807,4.07289 z M 457.79863,400.67854 c 3.35943,-2.1018 11.05806,-6.43106 17.10806,-9.62058 6.05,-3.18952 13.7,-7.50006 17,-9.57898 3.3,-2.07892 13.65,-8.14242 23,-13.47443 9.35,-5.33202 19.25,-11.15745 22,-12.94541 23.58349,-15.3332 29.86898,-19.60162 35.75,-24.27752 3.7125,-2.95174 6.75,-5.79764 6.75,-6.32421 0,-2.64986 -18.2868,0.0348 -23.49878,3.44984 -2.32237,1.52167 -5.70731,3.48299 -13.25122,7.67809 -2.0625,1.14694 -4.425,2.90535 -5.25,3.90758 -0.825,1.00223 -3.53764,3.10132 -6.02809,4.66466 -15.57542,9.77718 -54.81721,38.50756 -71.47191,52.32725 -3.3,2.73826 -6.9,5.64756 -8,6.46511 -3.9974,2.97097 -0.0629,1.45416 5.89194,-2.2714 z m -34.88116,-15.28198 c 4.39407,-2.53188 11.58922,-6.62844 15.98922,-9.10346 4.4,-2.47501 10.17283,-5.73064 12.82851,-7.23472 2.65567,-1.50409 4.58002,-2.98319 4.27631,-3.28689 -1.31897,-1.31897 -55.64208,28.33918 -60.05622,32.78819 -1.55816,1.57048 17.76011,-7.86083 26.96218,-13.16312 z m 462.92081,-6.87906 c 8.56052,-2.19037 19.72794,-4.89264 24.81649,-6.00503 5.08856,-1.1124 16.90192,-3.81286 26.25192,-6.00102 9.35,-2.18817 24.875,-5.75984 34.5,-7.93705 9.625,-2.17721 23.8,-5.59233 31.50001,-7.58914 7.7,-1.99681 21.2,-5.2122 30,-7.14532 8.8,-1.93311 18.925,-4.18255 22.5,-4.99875 3.575,-0.8162 7.2149,-1.63705 8.0886,-1.82409 0.8737,-0.18705 3.3487,-0.78992 5.5,-1.33971 2.1513,-0.54979 7.2864,-1.75577 11.4114,-2.67996 4.125,-0.92418 10.65,-2.53433 14.5,-3.57809 39.1771,-10.62122 64.8977,-18.50274 71.2884,-21.84484 2.0414,-1.06755 6.3422,-3.20855 9.5574,-4.75776 7.8001,-3.75845 12.6542,-8.21483 12.6542,-11.61742 0,-5.05451 -11.4272,-9.17622 -29.6191,-10.68337 -31.2001,-2.58484 -87.9331,0.001 -110.1453,5.02042 -2.3453,0.53 -5.2801,0.96363 -6.5217,0.96363 -1.2415,0 -7.6475,1.41628 -14.2356,3.14729 -6.5881,1.731 -13.4339,3.28646 -15.2129,3.45657 -1.779,0.17012 -4.0455,0.74329 -5.0366,1.27372 -0.9912,0.53043 -5.5976,1.6844 -10.23648,2.56439 -4.63892,0.87999 -10.16319,2.0655 -12.27617,2.63446 -7.9018,2.12773 -10.519,2.39184 -22.77792,2.29853 -15.52234,-0.11814 -18.93831,-1.17015 -25.42775,-7.83094 -4.19887,-4.30974 -5.5339,-6.67364 -8.24172,-14.5934 -1.77718,-5.19784 -3.73055,-11.92562 -4.34082,-14.95062 -1.4284,-7.08024 -6.40058,-24.78954 -9.12491,-32.5 -4.92734,-13.94543 -12.5519,-25.71818 -17.45289,-26.94825 -2.45774,-0.61686 -16.44402,4.72029 -34.21368,13.05589 -5.14994,2.4158 -9.56268,4.39236 -9.80608,4.39236 -0.24341,0 -3.08251,1.30981 -6.30911,2.9107 -3.2266,1.60088 -6.19851,2.61338 -6.60424,2.25 -0.40573,-0.36339 -0.4332,-0.12929 -0.0611,0.5202 0.37215,0.6495 0.2599,1.43846 -0.24944,1.75325 -0.50934,0.31479 -1.48038,3.67405 -2.15787,7.46503 -2.83167,15.84507 1.12036,45.70331 9.80796,74.10082 1.935,6.325 4.30028,14.2 5.25617,17.5 0.9559,3.3 3.76596,12.975 6.24458,21.5 2.47862,8.525 4.82092,17.525 5.20511,20 1.24107,7.99514 2.57922,12 4.00955,12 0.76724,0 8.39903,-1.79212 16.95954,-3.9825 z M 853.22365,214.82589 c 0.72925,-0.72924 1.80159,-1.32589 2.38299,-1.32589 1.06003,0 15.28166,-5.89506 26.05005,-10.7981 5.81413,-2.64727 7.19878,-4.13132 4,-4.28715 -6.83874,-0.33316 -13.6666,0.47406 -19.16079,2.26528 -5.34275,1.74184 -7.67516,3.31456 -14,9.44005 -7.4817,7.24588 -7.53969,7.34066 -4.09367,6.69085 1.92254,-0.36253 4.09218,-1.2558 4.82142,-1.98504 z"
     id="path823"
     inkscape:connector-curvature="0" />
</svg>
